<svg width="40" height="30" viewBox="0 0 40 30" fill="none" xmlns="http://www.w3.org/2000/svg">
<path fill-rule="evenodd" clip-rule="evenodd" d="M32 0.599976C33.9096 0.599976 35.7409 1.35855 37.0912 2.70881C38.4414 4.05907 39.2 5.89042 39.2 7.79998V22.2C39.2 24.1095 38.4414 25.9409 37.0912 27.2911C35.7409 28.6414 33.9096 29.4 32 29.4H8.00001C6.09045 29.4 4.25911 28.6414 2.90884 27.2911C1.55858 25.9409 0.800014 24.1095 0.800014 22.2V7.79998C0.800014 5.89042 1.55858 4.05907 2.90884 2.70881C4.25911 1.35855 6.09045 0.599976 8.00001 0.599976H32ZM34.4 22.2V19.8H22.4V24.6H32C32.6365 24.6 33.247 24.3471 33.6971 23.897C34.1472 23.4469 34.4 22.8365 34.4 22.2ZM17.6 24.6H8.00001C7.36349 24.6 6.75304 24.3471 6.30296 23.897C5.85287 23.4469 5.60001 22.8365 5.60001 22.2V19.8H17.6V24.6ZM17.6 15H5.60001V10.2H17.6V15ZM22.4 10.2H34.4V15H22.4V10.2Z" fill="#969696"/>
</svg>
