<svg width="145" height="138" viewBox="0 0 145 138" fill="none" xmlns="http://www.w3.org/2000/svg">
<circle cx="69" cy="69" r="69" fill="#DF4949"/>
<path d="M34 85.717C34 85.717 88.492 86.0819 89.4651 85.717C90.4381 85.3521 99.1958 35.0014 99.8445 34.6365C100.493 34.2717 115.089 34.6365 115.089 34.6365" stroke="white" stroke-width="10" stroke-linecap="round"/>
<path d="M56.8064 103.249C56.8064 110.301 51.8428 116.018 45.7199 116.018C39.5971 116.018 34.6335 110.301 34.6335 103.249C34.6335 96.1959 39.5971 90.4786 45.7199 90.4786C51.8428 90.4786 56.8064 96.1959 56.8064 103.249ZM41.8121 103.249C41.8121 105.735 43.5617 107.75 45.7199 107.75C47.8782 107.75 49.6278 105.735 49.6278 103.249C49.6278 100.763 47.8782 98.7473 45.7199 98.7473C43.5617 98.7473 41.8121 100.763 41.8121 103.249Z" fill="white"/>
<path d="M85.9478 103.249C85.9478 110.301 80.9842 116.018 74.8614 116.018C68.7385 116.018 63.775 110.301 63.775 103.249C63.775 96.1959 68.7385 90.4786 74.8614 90.4786C80.9842 90.4786 85.9478 96.1959 85.9478 103.249ZM70.9535 103.249C70.9535 105.735 72.7031 107.75 74.8614 107.75C77.0196 107.75 78.7693 105.735 78.7693 103.249C78.7693 100.763 77.0196 98.7473 74.8614 98.7473C72.7031 98.7473 70.9535 100.763 70.9535 103.249Z" fill="white"/>
<rect x="39.4988" y="35.4744" width="44.4358" height="41.8966" rx="3" transform="rotate(2.05016 39.4988 35.4744)" fill="white"/>
</svg>
