<svg width="39" height="39" viewBox="0 0 39 39" fill="none" xmlns="http://www.w3.org/2000/svg">
<path fill-rule="evenodd" clip-rule="evenodd" d="M0.702686 17.5032C0.252754 17.9533 0 18.5636 0 19.2C0 19.8364 0.252754 20.4467 0.702686 20.8968L17.5027 37.6968C17.9528 38.1467 18.5631 38.3995 19.1995 38.3995C19.8359 38.3995 20.4462 38.1467 20.8963 37.6968L37.6963 20.8968C37.9195 20.6742 38.0965 20.4097 38.2172 20.1186C38.3379 19.8274 38.3998 19.5152 38.3995 19.2V7.2C38.3995 5.29044 37.6409 3.45909 36.2907 2.10883C34.9404 0.758569 33.109 0 31.1995 0H19.1995C18.5851 0 17.9707 0.2352 17.5027 0.7032L0.702686 17.5032ZM31.1995 9.6C30.563 9.6 29.9525 9.34714 29.5024 8.89706C29.0523 8.44697 28.7995 7.83652 28.7995 7.2C28.7995 6.56348 29.0523 5.95303 29.5024 5.50294C29.9525 5.05286 30.563 4.8 31.1995 4.8C31.836 4.8 32.4465 5.05286 32.8965 5.50294C33.3466 5.95303 33.5995 6.56348 33.5995 7.2C33.5995 7.83652 33.3466 8.44697 32.8965 8.89706C32.4465 9.34714 31.836 9.6 31.1995 9.6Z" fill="#969696"/>
</svg>
