<svg width="40" height="34" viewBox="0 0 40 34" fill="none" xmlns="http://www.w3.org/2000/svg">
<path d="M0.799988 19.4C0.799988 18.7635 1.05284 18.153 1.50293 17.703C1.95302 17.2529 2.56347 17 3.19999 17H7.99999C8.63651 17 9.24696 17.2529 9.69704 17.703C10.1471 18.153 10.4 18.7635 10.4 19.4V31.4C10.4 32.0365 10.1471 32.647 9.69704 33.0971C9.24696 33.5472 8.63651 33.8 7.99999 33.8H3.19999C2.56347 33.8 1.95302 33.5472 1.50293 33.0971C1.05284 32.647 0.799988 32.0365 0.799988 31.4V19.4ZM15.2 9.80001C15.2 9.16349 15.4528 8.55304 15.9029 8.10296C16.353 7.65287 16.9635 7.40001 17.6 7.40001H22.4C23.0365 7.40001 23.647 7.65287 24.097 8.10296C24.5471 8.55304 24.8 9.16349 24.8 9.80001V31.4C24.8 32.0365 24.5471 32.647 24.097 33.0971C23.647 33.5472 23.0365 33.8 22.4 33.8H17.6C16.9635 33.8 16.353 33.5472 15.9029 33.0971C15.4528 32.647 15.2 32.0365 15.2 31.4V9.80001ZM29.6 2.60001C29.6 1.96349 29.8528 1.35304 30.3029 0.902956C30.753 0.452869 31.3635 0.200012 32 0.200012H36.8C37.4365 0.200012 38.047 0.452869 38.497 0.902956C38.9471 1.35304 39.2 1.96349 39.2 2.60001V31.4C39.2 32.0365 38.9471 32.647 38.497 33.0971C38.047 33.5472 37.4365 33.8 36.8 33.8H32C31.3635 33.8 30.753 33.5472 30.3029 33.0971C29.8528 32.647 29.6 32.0365 29.6 31.4V2.60001Z" fill="#969696"/>
</svg>
