<svg width="34" height="40" viewBox="0 0 34 40" fill="none" xmlns="http://www.w3.org/2000/svg">
<path d="M19.4 36.8C19.4002 37.2089 19.5049 37.611 19.7042 37.9681C19.9035 38.3252 20.1907 38.6255 20.5386 38.8405C20.8865 39.0554 21.2835 39.1779 21.692 39.1963C22.1006 39.2147 22.507 39.1284 22.8728 38.9456L32.4728 34.1456C32.8714 33.9464 33.2067 33.6402 33.4411 33.2612C33.6755 32.8823 33.7998 32.4456 33.8 32V18.1664C33.7998 17.7574 33.6951 17.3553 33.4958 16.9982C33.2966 16.6411 33.0094 16.3409 32.6615 16.1259C32.3136 15.911 31.9165 15.7885 31.508 15.7701C31.0995 15.7517 30.693 15.838 30.3272 16.0208L20.7272 20.8208C20.3286 21.02 19.9933 21.3262 19.7589 21.7051C19.5245 22.0841 19.4003 22.5208 19.4 22.9664V36.8ZM29.5064 11.0624C29.9045 10.8629 30.2393 10.5565 30.4732 10.1776C30.7072 9.79865 30.8311 9.36211 30.8311 8.91679C30.8311 8.47147 30.7072 8.03493 30.4732 7.65601C30.2393 7.27708 29.9045 6.97072 29.5064 6.77119L18.0728 1.05439C17.7397 0.887927 17.3724 0.80127 17 0.80127C16.6276 0.80127 16.2603 0.887927 15.9272 1.05439L4.49361 6.77119C4.0955 6.97072 3.76075 7.27708 3.52681 7.65601C3.29287 8.03493 3.16897 8.47147 3.16897 8.91679C3.16897 9.36211 3.29287 9.79865 3.52681 10.1776C3.76075 10.5565 4.0955 10.8629 4.49361 11.0624L15.9272 16.7792C16.2603 16.9456 16.6276 17.0323 17 17.0323C17.3724 17.0323 17.7397 16.9456 18.0728 16.7792L29.5064 11.0624ZM3.67281 16.0208C3.307 15.838 2.90055 15.7517 2.49203 15.7701C2.0835 15.7885 1.68645 15.911 1.33856 16.1259C0.990663 16.3409 0.703458 16.6411 0.504198 16.9982C0.304937 17.3553 0.200231 17.7574 0.200012 18.1664V32C0.20025 32.4456 0.324532 32.8823 0.558938 33.2612C0.793344 33.6402 1.12862 33.9464 1.52721 34.1456L11.1272 38.9456C11.493 39.1284 11.8995 39.2147 12.308 39.1963C12.7165 39.1779 13.1136 39.0554 13.4615 38.8405C13.8094 38.6255 14.0966 38.3252 14.2958 37.9681C14.4951 37.611 14.5998 37.2089 14.6 36.8V22.9664C14.5998 22.5208 14.4755 22.0841 14.2411 21.7051C14.0067 21.3262 13.6714 21.02 13.2728 20.8208L3.67281 16.0208Z" fill="#969696"/>
</svg>
