<svg width="61" height="53" viewBox="0 0 61 53" fill="none" xmlns="http://www.w3.org/2000/svg">
<path fill-rule="evenodd" clip-rule="evenodd" d="M4.44287 52.02C3.6701 52.0231 2.90981 51.825 2.23672 51.4453C1.56363 51.0655 1.00091 50.5171 0.603853 49.8539C0.215045 49.198 0.0098877 48.4495 0.0098877 47.687C0.0098877 46.9244 0.215045 46.1759 0.603853 45.52L26.1694 2.18896C26.5681 1.52725 27.1311 0.979848 27.8036 0.599854C28.4761 0.219859 29.2355 0.0201416 30.0079 0.0201416C30.7803 0.0201416 31.5396 0.219859 32.2122 0.599854C32.8847 0.979848 33.4477 1.52725 33.8464 2.18896L59.4159 45.52C59.8047 46.1759 60.0099 46.9244 60.0099 47.687C60.0099 48.4495 59.8047 49.198 59.4159 49.8539C59.0191 50.5173 58.4564 51.0659 57.7833 51.4457C57.1101 51.8255 56.3497 52.0234 55.5769 52.02H4.44287ZM30.0234 12.02C28.9628 12.02 27.9456 12.4414 27.1957 13.1915C26.4457 13.9417 26.0244 14.9591 26.0244 16.02V32.02C26.0244 33.0808 26.4457 34.0982 27.1957 34.8484C27.9456 35.5985 28.9628 36.02 30.0234 36.02C31.084 36.02 32.1011 35.5985 32.8511 34.8484C33.6011 34.0982 34.0224 33.0808 34.0224 32.02V16.02C34.0224 14.9591 33.6011 13.9417 32.8511 13.1915C32.1011 12.4414 31.084 12.02 30.0234 12.02ZM30.0234 48.02C30.8143 48.02 31.5875 47.7854 32.2451 47.3458C32.9027 46.9063 33.4153 46.2816 33.718 45.5507C34.0206 44.8198 34.0998 44.0155 33.9455 43.2396C33.7912 42.4637 33.4104 41.7509 32.8511 41.1915C32.2918 40.6321 31.5793 40.2511 30.8036 40.0968C30.0278 39.9425 29.2238 40.0217 28.493 40.3245C27.7623 40.6272 27.1378 41.1399 26.6984 41.7977C26.2589 42.4555 26.0244 43.2288 26.0244 44.02C26.0244 45.0808 26.4457 46.0982 27.1957 46.8484C27.9456 47.5985 28.9628 48.02 30.0234 48.02Z" fill="#F4C51F"/>
</svg>
